<svg id="_x31_" enable-background="new 0 0 24 24" height="512" viewBox="0 0 24 24" width="512" xmlns="http://www.w3.org/2000/svg"><g><path d="m17.5 24c-3.584 0-6.5-2.916-6.5-6.5s2.916-6.5 6.5-6.5 6.5 2.916 6.5 6.5-2.916 6.5-6.5 6.5zm0-12c-3.032 0-5.5 2.468-5.5 5.5s2.468 5.5 5.5 5.5 5.5-2.468 5.5-5.5-2.468-5.5-5.5-5.5z"/></g><g><path d="m17.5 21c-.276 0-.5-.224-.5-.5v-6c0-.276.224-.5.5-.5s.5.224.5.5v6c0 .276-.224.5-.5.5z"/></g><g><path d="m20.5 18h-6c-.276 0-.5-.224-.5-.5s.224-.5.5-.5h6c.276 0 .5.224.5.5s-.224.5-.5.5z"/></g><g><path d="m9.24 20h-6.74c-1.379 0-2.5-1.121-2.5-2.5v-15c0-1.378 1.121-2.5 2.5-2.5h11c1.379 0 2.5 1.122 2.5 2.5v6.74c0 .276-.224.5-.5.5s-.5-.223-.5-.5v-6.74c0-.827-.673-1.5-1.5-1.5h-11c-.827 0-1.5.673-1.5 1.5v15c0 .827.673 1.5 1.5 1.5h6.74c.276 0 .5.224.5.5s-.223.5-.5.5z"/></g><g><path d="m5 9c-1.103 0-2-.897-2-2s.897-2 2-2 2 .897 2 2-.897 2-2 2zm0-3c-.552 0-1 .449-1 1s.448 1 1 1 1-.449 1-1-.448-1-1-1z"/></g><g><path d="m.5 15.5c-.128 0-.256-.049-.354-.146-.195-.195-.195-.512 0-.707l2.29-2.29c.564-.566 1.562-.566 2.127 0l1.437 1.436 4.937-4.937c.564-.566 1.562-.566 2.127 0l.79.79c.195.195.195.512 0 .707s-.512.195-.707 0l-.79-.79c-.189-.188-.523-.188-.713 0l-5.29 5.29c-.195.195-.512.195-.707 0l-1.79-1.79c-.189-.188-.523-.188-.713 0l-2.29 2.29c-.098.098-.226.147-.354.147z"/></g></svg>