<svg id="Capa_1" enable-background="new 0 0 512 512" height="512" viewBox="0 0 512 512" width="512" xmlns="http://www.w3.org/2000/svg"><g><path d="m461.208 196.807-60.715 50.307 29.226 55.204c.708 1.337 1.605 2.543 2.649 3.587 2.242 2.241 5.166 3.744 8.377 4.227 4.707.708 9.471-.86 12.837-4.226l21.213-21.213c3.683-3.683 5.192-9.014 3.985-14.081z"/><path d="m488.937 23.063c-15.636-15.636-37.272-24.011-59.36-22.978-22.088 1.033-42.848 11.391-56.955 28.418l-135.336 163.336-31.647-13.563c-5.638-2.417-12.178-1.157-16.516 3.18l-31.82 31.82c-3.52 3.52-5.064 8.555-4.122 13.443.941 4.888 4.245 8.989 8.821 10.951l34.083 14.607-25.521 25.521-3.536-3.536c-5.858-5.858-15.355-5.858-21.213 0l-141.421 141.42c-4.077 4.077-5.456 10.131-3.548 15.572 1.909 5.441 6.766 9.307 12.498 9.943l51.713 5.746 5.746 51.713c.383 3.452 1.938 6.586 4.303 8.951 1.561 1.561 3.477 2.788 5.64 3.547 5.44 1.908 11.494.529 15.572-3.548l141.421-141.421c5.858-5.858 5.858-15.355 0-21.213l-3.536-3.536 25.521-25.521 14.607 34.083c.763 1.78 1.849 3.366 3.18 4.698 2.09 2.09 4.784 3.548 7.771 4.123 4.888.942 9.924-.603 13.443-4.122l31.82-31.82c4.337-4.337 5.597-10.878 3.18-16.516l-13.563-31.647 163.334-135.335c17.028-14.108 27.385-34.868 28.419-56.956 1.033-22.087-7.343-43.724-22.978-59.36zm-328.98 350.193-28.284 28.284c-5.858 5.858-15.355 5.858-21.213 0s-5.858-15.355 0-21.213l28.284-28.284c5.858-5.858 15.355-5.858 21.213 0s5.858 15.355 0 21.213zm53.034-53.033-21.214-21.214 34.006-34.006 14.85 6.364 6.364 14.85z"/><path d="m206.095 79.632c1.045 1.045 2.25 1.941 3.587 2.649l55.204 29.226 50.307-60.715-73.805-17.572c-5.067-1.207-10.398.302-14.081 3.985l-21.213 21.213c-3.366 3.366-4.934 8.13-4.226 12.837.483 3.211 1.986 6.136 4.227 8.377z"/></g></svg>