<svg id="_x31__x2C_5" enable-background="new 0 0 24 24" height="512" viewBox="0 0 24 24" width="512" xmlns="http://www.w3.org/2000/svg"><g><path d="m19.25 24h-16.5c-1.517 0-2.75-1.233-2.75-2.75v-16.5c0-1.517 1.233-2.75 2.75-2.75h14.771c.414 0 .75.336.75.75s-.336.75-.75.75h-14.771c-.689 0-1.25.561-1.25 1.25v16.5c0 .689.561 1.25 1.25 1.25h16.5c.689 0 1.25-.561 1.25-1.25v-14.771c0-.414.336-.75.75-.75s.75.336.75.75v14.771c0 1.517-1.233 2.75-2.75 2.75z"/></g><g><path d="m20.5 7c-1.93 0-3.5-1.57-3.5-3.5s1.57-3.5 3.5-3.5 3.5 1.57 3.5 3.5-1.57 3.5-3.5 3.5zm0-5.5c-1.103 0-2 .897-2 2s.897 2 2 2 2-.897 2-2-.897-2-2-2z"/></g><g><path d="m10.5 16h-.75c-.414 0-.75-.336-.75-.75v-4.5c0-.414.336-.75.75-.75h.75c1.654 0 3 1.346 3 3s-1.346 3-3 3zm0-4.5v3c.827 0 1.5-.673 1.5-1.5s-.673-1.5-1.5-1.5z"/></g><g><path d="m6.25 16c-.414 0-.75-.336-.75-.75v-3.25c0-.276-.224-.5-.5-.5s-.5.224-.5.5v3.25c0 .414-.336.75-.75.75s-.75-.336-.75-.75v-3.25c0-1.103.897-2 2-2s2 .897 2 2v3.25c0 .414-.336.75-.75.75z"/></g><g><path d="m6.25 14.5h-2.5c-.414 0-.75-.336-.75-.75s.336-.75.75-.75h2.5c.414 0 .75.336.75.75s-.336.75-.75.75z"/></g><g><path d="m17.208 16h-1.458c-.414 0-.75-.336-.75-.75s.336-.75.75-.75h1.458c.158 0 .292-.172.292-.375s-.133-.375-.292-.375h-.417c-.988 0-1.792-.841-1.792-1.875s.805-1.875 1.793-1.875h1.458c.414 0 .75.336.75.75s-.336.75-.75.75h-1.458c-.158 0-.292.172-.292.375s.133.375.292.375h.417c.988 0 1.792.841 1.792 1.875s-.805 1.875-1.793 1.875z"/></g></svg>