<svg id="Capa_1" enable-background="new 0 0 512 512" height="512" viewBox="0 0 512 512" width="512" xmlns="http://www.w3.org/2000/svg"><g><path d="m138.745 352.043-28.284 28.284c-5.858 5.858-5.858 15.355 0 21.213 2.929 2.929 6.768 4.394 10.606 4.394s7.678-1.464 10.606-4.394l28.284-28.284c5.858-5.858 5.858-15.355 0-21.213-5.857-5.859-15.355-5.859-21.212 0z"/><path d="m488.936 23.064c-15.634-15.636-37.257-24.013-59.358-22.978-22.088 1.033-42.849 11.391-56.958 28.418l-24.887 30.036-106.344-25.32c-5.065-1.205-10.397.302-14.081 3.986l-35.355 35.355c-3.366 3.366-4.935 8.129-4.227 12.837.708 4.707 3.607 8.799 7.814 11.026l83.97 44.455-32.958 39.777-45.155-19.352c-5.641-2.417-12.179-1.155-16.516 3.18l-42.427 42.427c-3.52 3.52-5.064 8.555-4.123 13.443s4.246 8.99 8.82 10.951l48.933 20.971-25.52 25.52-3.536-3.536c-5.857-5.858-15.355-5.858-21.213 0l-141.421 141.422c-4.077 4.077-5.457 10.13-3.548 15.572 1.908 5.441 6.767 9.306 12.498 9.943l51.713 5.746 5.746 51.713c.637 5.73 4.502 10.589 9.943 12.498 1.623.569 3.3.846 4.963.846 3.912 0 7.747-1.533 10.608-4.394l141.421-141.421c2.813-2.813 4.394-6.628 4.394-10.606 0-3.979-1.58-7.793-4.394-10.606l-3.535-3.535 25.52-25.52 20.971 48.932c1.961 4.575 6.063 7.879 10.95 8.821.944.182 1.895.271 2.837.271 3.94 0 7.767-1.554 10.606-4.394l42.426-42.426c4.337-4.337 5.597-10.877 3.181-16.515l-19.352-45.155 39.777-32.958 44.454 83.97c2.228 4.207 6.319 7.107 11.026 7.815.744.112 1.49.167 2.231.167 3.947 0 7.771-1.56 10.605-4.394l35.355-35.355c3.684-3.683 5.192-9.014 3.985-14.081l-25.32-106.346 30.037-24.888c17.027-14.108 27.385-34.867 28.418-56.956s-7.338-43.727-22.974-59.362zm-261.41 56.349 15.067-15.067 83.797 19.952-27.331 32.986zm-130.352 384.911-3.625-32.622c-.774-6.973-6.279-12.477-13.252-13.251l-32.621-3.625 108.746-108.746 49.498 49.497zm115.817-144.101-21.214-21.214 34.005-34.005 14.85 6.364 6.364 14.85zm234.663-50.816-15.068 15.067-37.87-71.534 32.987-27.332zm34.293-188.385c-.649 13.874-6.896 26.395-17.592 35.257l-160.786 133.223c-5.119 4.242-6.836 11.348-4.217 17.459l19.769 46.126-19.579 19.579-33.699-78.63c-1.518-3.541-4.338-6.361-7.878-7.878l-78.632-33.699 19.58-19.579 46.126 19.769c6.11 2.62 13.216.903 17.46-4.217l133.222-160.788c8.862-10.695 21.384-16.942 35.259-17.591 13.862-.649 26.923 4.402 36.744 14.224s14.873 22.871 14.223 36.745z"/></g></svg>