<svg id="bold" enable-background="new 0 0 24 24" height="512" viewBox="0 0 24 24" width="512" xmlns="http://www.w3.org/2000/svg"><path d="m5 12.5c-.276 0-.5.224-.5.5v1h1v-1c0-.276-.224-.5-.5-.5z"/><path d="m10.5 12.5v3c.827 0 1.5-.673 1.5-1.5s-.673-1.5-1.5-1.5z"/><path d="m20.5 9c-3.03 0-5.5-2.47-5.5-5.5 0-.52.07-1.02.21-1.5h-12.46c-1.52 0-2.75 1.23-2.75 2.75v16.5c0 1.52 1.23 2.75 2.75 2.75h16.5c1.52 0 2.75-1.23 2.75-2.75v-12.46c-.48.14-.98.21-1.5.21zm-13.5 7.25c0 .41-.34.75-.75.75s-.75-.34-.75-.75v-.75h-1v.75c0 .41-.34.75-.75.75s-.75-.34-.75-.75v-3.25c0-1.1.9-2 2-2s2 .9 2 2zm3.5.75h-.75c-.41 0-.75-.34-.75-.75v-4.5c0-.41.34-.75.75-.75h.75c1.65 0 3 1.35 3 3s-1.35 3-3 3zm6.29-3.75h.42c.99 0 1.79.84 1.79 1.87 0 1.04-.8 1.88-1.79 1.88h-1.46c-.41 0-.75-.34-.75-.75s.34-.75.75-.75h1.46c.16 0 .29-.17.29-.38 0-.2-.13-.37-.29-.37h-.42c-.99 0-1.79-.84-1.79-1.87 0-1.04.8-1.88 1.79-1.88h1.46c.41 0 .75.34.75.75s-.34.75-.75.75h-1.46c-.16 0-.29.17-.29.38 0 .2.13.37.29.37z"/><path d="m20.5 7c-1.93 0-3.5-1.57-3.5-3.5s1.57-3.5 3.5-3.5 3.5 1.57 3.5 3.5-1.57 3.5-3.5 3.5z"/></svg>