<?xml version="1.0" encoding="iso-8859-1"?>
<!-- Generator: Adobe Illustrator 19.0.0, SVG Export Plug-In . SVG Version: 6.00 Build 0)  -->
<svg version="1.1" id="Capa_1" xmlns="http://www.w3.org/2000/svg" xmlns:xlink="http://www.w3.org/1999/xlink" x="0px" y="0px"
	 viewBox="0 0 512 512" style="enable-background:new 0 0 512 512;" xml:space="preserve">
<g>
	<g>
		<path d="M170.256,403.875c10.65-12.234,17.122-28.196,17.122-45.652c0-38.393-31.234-69.627-69.627-69.627
			c-14.451,0-27.886,4.428-39.024,11.994c-1.632-10.049-2.463-20.254-2.463-30.537c0-49.249,18.842-95.868,53.054-131.273
			c25.408-26.294,57.27-44.329,92.103-52.568l-23.142,27.868l23.133,19.21l59.366-71.49L201.539,17.43l-14.69,26.236l24.912,13.95
			c-39.327,9.833-75.273,30.476-104.065,60.27c-39.659,41.041-61.5,95.081-61.5,152.168c0,20.2,2.752,40.155,8.17,59.414
			c-3.996,8.772-6.241,18.504-6.241,28.756c0,17.491,6.497,33.483,17.185,45.726c-37.719,14.016-64.668,50.375-64.668,92.914v15.034
			h234.473v-15.034C235.117,454.25,208.078,417.838,170.256,403.875z M117.752,318.665c21.813,0,39.558,17.746,39.558,39.558
			s-17.746,39.558-39.559,39.558c-21.812,0-39.557-17.746-39.557-39.558S95.94,318.665,117.752,318.665z M32.362,481.828
			c6.879-30.85,34.471-53.977,67.363-53.977h36.311c32.892,0,60.484,23.128,67.363,53.977H32.362z"/>
	</g>
</g>
<g>
	<g>
		<path d="M511.357,208.266c0-42.611-27.04-79.025-64.86-92.988c10.65-12.233,17.122-28.196,17.122-45.652
			C463.619,31.234,432.385,0,393.992,0c-38.393,0-69.627,31.234-69.627,69.626c0,17.491,6.497,33.483,17.186,45.726
			c-37.719,14.016-64.667,50.375-64.667,92.915v15.034h171.669c3.701,14.892,5.576,30.234,5.576,45.751
			c0,45.405-16.341,89.291-46.014,123.576c-21.289,24.598-48.406,43.143-78.51,54.073l19.818-31.008l-25.335-16.193l-50.044,78.3
			L358.173,512l11.325-27.855l-25.967-10.556c33.429-12.822,63.523-33.788,87.321-61.284
			c34.401-39.748,53.347-90.623,53.347-143.254c0-15.46-1.611-30.777-4.793-45.751h31.952V208.266z M393.992,30.069
			c21.813,0,39.558,17.746,39.558,39.557c0,21.813-17.746,39.558-39.558,39.558s-39.558-17.746-39.558-39.558
			C354.434,47.814,372.179,30.069,393.992,30.069z M308.603,193.232c6.879-30.851,34.471-53.978,67.363-53.978h36.311
			c32.892,0,60.484,23.128,67.363,53.978H308.603z"/>
	</g>
</g>
<g>
</g>
<g>
</g>
<g>
</g>
<g>
</g>
<g>
</g>
<g>
</g>
<g>
</g>
<g>
</g>
<g>
</g>
<g>
</g>
<g>
</g>
<g>
</g>
<g>
</g>
<g>
</g>
<g>
</g>
</svg>
