<?xml version="1.0" encoding="iso-8859-1"?>
<!-- Generator: Adobe Illustrator 19.0.0, SVG Export Plug-In . SVG Version: 6.00 Build 0)  -->
<svg version="1.1" id="Capa_1" xmlns="http://www.w3.org/2000/svg" xmlns:xlink="http://www.w3.org/1999/xlink" x="0px" y="0px"
	 viewBox="0 0 512 512" style="enable-background:new 0 0 512 512;" xml:space="preserve">
<g>
	<g>
		<path d="M469.504,254.396c0.112-2.88,0.208-5.768,0.208-8.68c0-118.03-95.682-213.712-213.712-213.712
			S42.288,127.686,42.288,245.716c0,2.904,0.096,5.8,0.208,8.68C16.67,266.011,0.043,291.678,0,319.996v64
			c0.044,39.746,32.254,71.956,72,72v16c0,4.418,3.582,8,8,8h32c4.418,0,8-3.582,8-8v-240c0-4.418-3.582-8-8-8H89.728
			c15.097-91.83,101.778-154.034,193.607-138.937c71.315,11.724,127.212,67.621,138.937,138.937H400c-4.418,0-8,3.582-8,8v240
			c0,4.418,3.582,8,8,8h32c4.418,0,8-3.582,8-8v-16c39.746-0.044,71.956-32.254,72-72v-64
			C511.957,291.678,495.33,266.011,469.504,254.396z M72,439.996c-30.911-0.04-55.96-25.089-56-56v-64
			c0.04-30.911,25.089-55.96,56-56V439.996z M104,239.996v224H88v-224H104z M424,463.996h-16v-224h16V463.996z M439.264,228.716
			C427.636,136.318,349.127,66.973,256,66.844c-93.127,0.129-171.636,69.474-183.264,161.872c-0.477,1.028-0.728,2.147-0.736,3.28
			v3.72c-0.341,4.075-0.555,8.179-0.64,12.312c-4.359,0.039-8.705,0.475-12.984,1.304c0-1.216-0.088-2.4-0.088-3.624
			c0.028-109.193,88.57-197.689,197.763-197.66c109.153,0.028,197.632,88.507,197.661,197.66c0,1.216-0.072,2.4-0.088,3.624
			c-4.278-0.839-8.624-1.287-12.984-1.336c-0.08-4.139-0.293-8.243-0.64-12.312v-3.688
			C439.992,230.863,439.741,229.744,439.264,228.716z M496,383.996c-0.04,30.911-25.089,55.96-56,56v-176
			c30.911,0.04,55.96,25.089,56,56V383.996z"/>
	</g>
</g>
<g>
	<g>
		<path d="M48,363.996c-4.418,0-8,3.582-8,8v8c0,4.418,3.582,8,8,8s8-3.582,8-8v-8C56,367.578,52.418,363.996,48,363.996z"/>
	</g>
</g>
<g>
	<g>
		<path d="M48,331.996c-4.418,0-8,3.582-8,8v8c0,4.418,3.582,8,8,8s8-3.582,8-8v-8C56,335.578,52.418,331.996,48,331.996z"/>
	</g>
</g>
<g>
	<g>
		<path d="M48,299.996c-4.418,0-8,3.582-8,8v8c0,4.418,3.582,8,8,8s8-3.582,8-8v-8C56,303.578,52.418,299.996,48,299.996z"/>
	</g>
</g>
<g>
</g>
<g>
</g>
<g>
</g>
<g>
</g>
<g>
</g>
<g>
</g>
<g>
</g>
<g>
</g>
<g>
</g>
<g>
</g>
<g>
</g>
<g>
</g>
<g>
</g>
<g>
</g>
<g>
</g>
</svg>
