<svg height="512pt" viewBox="-2 0 512 512.00191" width="512pt" xmlns="http://www.w3.org/2000/svg"><path d="m449.777344 64.621094c-14.882813-13.351563-83.386719 38.738281-153 116.347656-69.613282 77.609375-113.976563 151.351562-99.089844 164.703125 14.882812 13.351563 83.382812-38.738281 153-116.351563 69.613281-77.609374 113.976562-151.347656 99.089844-164.699218zm0 0" fill="#16b770"/><path d="m449.78125 64.597656c-3.855469-3.460937-11.316406-2.519531-21.453125 2.109375 9.316406 17.738281-34.152344 88.394531-100.703125 162.597657-51.585938 57.511718-102.546875 101.003906-131.550781 114.246093.429687.8125.964843 1.523438 1.617187 2.109375 14.886719 13.355469 83.386719-38.742187 153-116.355468 69.613282-77.613282 113.976563-151.355469 99.089844-164.707032zm0 0" fill="#009c56"/><path d="m407.734375 159.105469c34.582031-47.761719 52.261719-85.347657 42.046875-94.507813s-45.664062 12.484375-89.394531 52.042969zm0 0" fill="#fff4f1"/><path d="m452.570312 70.972656c-.007812-.09375-.023437-.183594-.035156-.273437-.042968-.402344-.105468-.785157-.175781-1.160157-.027344-.132812-.054687-.265624-.085937-.394531-.085938-.367187-.183594-.722656-.296876-1.058593-.023437-.074219-.042968-.152344-.070312-.222657-.140625-.398437-.308594-.769531-.492188-1.125-.050781-.09375-.101562-.179687-.15625-.269531-.148437-.265625-.3125-.519531-.492187-.761719-.066406-.089843-.128906-.179687-.199219-.269531-.242187-.296875-.5-.582031-.78125-.839844-.003906 0-.003906 0-.003906 0 0-.003906-.003906-.003906-.003906-.003906-.285156-.257812-.597656-.480469-.925782-.691406-.097656-.0625-.203124-.121094-.308593-.179688-.242188-.140625-.496094-.265625-.761719-.382812-.117188-.050782-.234375-.105469-.355469-.152344-.328125-.125-.671875-.230469-1.027343-.324219-.058594-.011719-.109376-.035156-.167969-.046875-.402344-.09375-.832031-.160156-1.265625-.210937-.167969-.015625-.339844-.027344-.507813-.039063-.296875-.023437-.601562-.039062-.914062-.042968-.195313 0-.390625-.003907-.589844 0-.339844.007812-.6875.03125-1.039063.0625-.238281.015624-.480468.035156-.722656.066406-.425781.046875-.863281.109375-1.308594.183594-.269531.046874-.542968.105468-.816406.160156-.300781.058594-.601562.125-.910156.195312-.300781.070313-.605469.144532-.917969.226563-.296875.078125-.605469.167969-.910156.253906-.566406.164063-1.144531.34375-1.734375.542969-.308594.101562-.609375.199218-.925781.3125-.378907.136718-.769531.285156-1.160157.433594-.285156.105468-.570312.21875-.859374.332031-.402344.160156-.8125.328125-1.226563.5-.28125.121093-.570313.246093-.859375.371093-.410156.179688-.816406.355469-1.234375.546876 5.652344 10.761718-8.136719 41.019531-34.722656 79.726562l14.125 12.667969c.992187-1.371094 1.96875-2.730469 2.933593-4.082031.179688-.257813.363282-.511719.542969-.765626.890625-1.253906 1.773438-2.503906 2.640625-3.746093.074219-.105469.148438-.210938.222656-.316407.964844-1.378906 1.910157-2.75 2.84375-4.109374.101563-.148438.203126-.296876.304688-.449219.808594-1.179688 1.605469-2.351563 2.386719-3.515625.167969-.246094.332031-.492188.496093-.734375 1.753907-2.617188 3.445313-5.1875 5.074219-7.714844.136719-.210937.269531-.421875.40625-.632813.695313-1.082031 1.375-2.15625 2.046875-3.21875.132813-.210937.265625-.417968.394532-.625 1.542968-2.464843 3.023437-4.875 4.433593-7.238281.144531-.238281.285157-.476562.425781-.714843.609376-1.027344 1.210938-2.046876 1.796876-3.054688.082031-.144531.171874-.292969.253906-.4375.667968-1.15625 1.320312-2.296875 1.957031-3.425781.082031-.148438.160156-.292969.242187-.441407.539063-.964843 1.066407-1.917968 1.578126-2.863281.132812-.238281.261718-.472656.386718-.710937.566406-1.042969 1.117188-2.074219 1.648438-3.089844.011718-.023438.023437-.046875.035156-.074219.554688-1.058593 1.085938-2.101562 1.601562-3.128906.105469-.207031.203126-.414063.304688-.617187.414062-.828126.8125-1.648438 1.203125-2.457032.101563-.214844.207031-.433594.308594-.648437.46875-.988281.921875-1.960938 1.355469-2.914063.003906-.003906.003906-.011718.007812-.019531.417969-.921875.8125-1.824219 1.195312-2.71875.09375-.226563.1875-.449219.285157-.671875.3125-.742188.609375-1.46875.898437-2.1875.066406-.167969.136719-.339844.203125-.507812.339844-.867188.664063-1.714844.96875-2.546876.050781-.144531.097657-.285156.152344-.429687.246094-.683594.480469-1.359375.699219-2.023437.070312-.210938.140625-.421876.210937-.632813.222657-.691406.433594-1.375.628907-2.039063.027343-.089843.058593-.183593.082031-.273437.214843-.75.40625-1.476563.585937-2.191406.042969-.171875.078125-.34375.121094-.515625.128906-.550782.25-1.089844.355469-1.617188.035156-.179687.074219-.363281.109375-.539062.125-.664063.234375-1.316406.324218-1.941406 0-.023438.003907-.039063.003907-.0625.082031-.601563.140625-1.179688.183593-1.746094.015626-.164063.023438-.328125.035157-.488282.023437-.449218.039062-.886718.042969-1.316406 0-.132812.003906-.265625.003906-.394531-.007813-.535156-.035156-1.050781-.082032-1.542969zm0 0" fill="#ecedef"/><path d="m483.402344 92.640625c-16.136719 17.992187-43.796875 19.496094-61.789063 3.359375-17.988281-16.132812-19.492187-43.796875-3.355469-61.785156 16.132813-17.992188 83.160157-27.191406 83.160157-27.191406s-1.882813 67.628906-18.015625 85.617187zm0 0" fill="#d47a3d"/><path d="m478.183594 11.121094c-.707032 14.90625-4.113282 66.203125-17.851563 81.519531-5.839843 6.511719-13.191406 10.851563-21.046875 12.988281 15.464844 4.21875 32.683594-.242187 44.117188-12.988281 16.132812-17.988281 18.015625-85.617187 18.015625-85.617187s-10.015625 1.375-23.234375 4.097656zm0 0" fill="#9f5c2e"/><path d="m416.039062 236.542969c-40.613281-.144531-78.839843-9.726563-107.695312-40.195313-22.378906-23.628906-35.132812-56.113281-34.804688-88.652344.105469-10.664062 1.554688-21.332031.714844-31.960937-2.347656-29.671875-24.261718-39.632813-51.492187-36.53125-134.039063 15.269531-237.296875 141.582031-213.519531 276.355469 4.078124 23.109375 11.601562 45.625 22.488281 66.425781 63.054687 120.46875 223.246093 160.4375 336.609375 86.261719 11.515625-7.53125 22.339844-16.117188 32.300781-25.609375 46.175781-44 72.730469-105.953125 72.730469-169.734375 0-.171875 0-.339844-.003906-.507813-.046876-23.1875-19.410157-35.667969-41.039063-35.816406-5.582031-.039063-10.996094-.015625-16.289063-.035156zm0 0" fill="#f9e075"/><path d="m475.089844 271.246094c-.046875-23.1875-19.40625-35.667969-41.039063-35.816406-5.582031-.039063-10.996093-.015626-16.292969-.035157-40.613281-.144531-78.835937-9.726562-107.695312-40.199219-22.375-23.625-35.128906-56.109374-34.804688-88.652343.109376-10.660157 1.554688-21.328125.714844-31.960938-2.347656-29.671875-24.261718-39.628906-51.488281-36.527343-1.007813.113281-2.007813.253906-3.015625.382812 17.3125 3.101562 29.703125 14.253906 31.4375 36.148438.839844 10.628906-.605469 21.296874-.714844 31.960937-.324218 32.539063 12.429688 65.023437 34.804688 88.652344 28.859375 30.46875 67.082031 40.050781 107.695312 40.195312 5.292969.019531 10.710938-.003906 16.292969.035157 21.628906.148437 40.988281 12.628906 41.039063 35.816406v.507812c0 63.78125-26.554688 125.734375-72.726563 169.734375-9.964844 9.496094-20.785156 18.078125-32.300781 25.613281-35.375 23.144532-75.308594 35.171876-115.425782 37.113282 47.703126 2.253906 96.335938-9.53125 138.492188-37.113282 11.515625-7.535156 22.339844-16.117187 32.300781-25.613281 46.175781-44 72.730469-105.953125 72.730469-169.734375 0-.171875 0-.339844-.003906-.507812zm0 0" fill="#f9cd45"/><path d="m194.441406 143.652344c0 17.734375-14.378906 32.109375-32.113281 32.109375-17.738281 0-32.113281-14.375-32.113281-32.109375 0-17.738282 14.375-32.113282 32.113281-32.113282 17.734375 0 32.113281 14.375 32.113281 32.113282zm0 0" fill="#f195d6"/><path d="m162.328125 111.539062c-4.070313 0-7.957031.761719-11.535156 2.140626 12.035156 4.632812 20.578125 16.300781 20.578125 29.96875 0 13.667968-8.542969 25.335937-20.578125 29.972656 3.578125 1.378906 7.464843 2.140625 11.535156 2.140625 17.734375 0 32.113281-14.378907 32.113281-32.113281 0-17.734376-14.378906-32.109376-32.113281-32.109376zm0 0" fill="#e480be"/><path d="m136.484375 219.15625c0 16.8125-13.628906 30.441406-30.441406 30.441406s-30.441407-13.628906-30.441407-30.441406 13.628907-30.441406 30.441407-30.441406 30.441406 13.628906 30.441406 30.441406zm0 0" fill="#65cee3"/><path d="m106.042969 188.714844c-4.082031 0-7.976563.808594-11.535157 2.265625 11.09375 4.546875 18.910157 15.445312 18.910157 28.175781s-7.816407 23.628906-18.910157 28.175781c3.558594 1.457031 7.453126 2.265625 11.535157 2.265625 16.8125 0 30.441406-13.628906 30.441406-30.441406 0-16.816406-13.628906-30.441406-30.441406-30.441406zm0 0" fill="#1bacd6"/><path d="m131.113281 327.199219c0 16.8125-13.628906 30.441406-30.445312 30.441406-16.8125 0-30.441407-13.628906-30.441407-30.441406s13.628907-30.441407 30.441407-30.441407c16.816406 0 30.445312 13.628907 30.445312 30.441407zm0 0" fill="#16b770"/><path d="m100.894531 296.757812c-4.125 0-8.058593.824219-11.648437 2.308594 11.035156 4.574219 18.796875 15.445313 18.796875 28.132813s-7.761719 23.558593-18.796875 28.128906c3.589844 1.488281 7.523437 2.3125 11.648437 2.3125 16.8125 0 30.441407-13.628906 30.441407-30.441406s-13.628907-30.441407-30.441407-30.441407zm0 0" fill="#009c56"/><path d="m200.652344 408.976562c0 16.8125-13.628906 30.441407-30.441406 30.441407s-30.441407-13.628907-30.441407-30.441407 13.628907-30.441406 30.441407-30.441406 30.441406 13.628906 30.441406 30.441406zm0 0" fill="#f85e49"/><path d="m170.210938 378.535156c-4.082032 0-7.976563.808594-11.535157 2.265625 11.09375 4.546875 18.910157 15.445313 18.910157 28.175781 0 12.730469-7.816407 23.628907-18.910157 28.171876 3.558594 1.460937 7.453125 2.269531 11.535157 2.269531 16.8125 0 30.441406-13.628907 30.441406-30.441407s-13.628906-30.441406-30.441406-30.441406zm0 0" fill="#ba4737"/><path d="m319.140625 414.945312c0 16.8125-13.628906 30.441407-30.441406 30.441407s-30.441407-13.628907-30.441407-30.441407 13.628907-30.441406 30.441407-30.441406 30.441406 13.628906 30.441406 30.441406zm0 0" fill="#ff9f4d"/><path d="m288.699219 384.503906c-4.082031 0-7.976563.808594-11.535157 2.265625 11.09375 4.546875 18.910157 15.445313 18.910157 28.175781 0 12.730469-7.816407 23.628907-18.910157 28.171876 3.558594 1.460937 7.453126 2.269531 11.535157 2.269531 16.8125 0 30.441406-13.628907 30.441406-30.445313 0-16.808594-13.628906-30.4375-30.441406-30.4375zm0 0" fill="#fb900d"/><path d="m409.785156 343.253906c0 17.734375-14.378906 32.113282-32.113281 32.113282-17.738281 0-32.113281-14.378907-32.113281-32.113282 0-17.738281 14.375-32.113281 32.113281-32.113281 17.734375 0 32.113281 14.375 32.113281 32.113281zm0 0" fill="#9b43a9"/><path d="m377.671875 311.140625c-4.066406 0-7.953125.761719-11.535156 2.140625 12.035156 4.636719 20.578125 16.304688 20.578125 29.972656 0 13.667969-8.542969 25.335938-20.578125 29.96875 3.582031 1.378906 7.46875 2.140625 11.535156 2.140625 17.734375 0 32.113281-14.375 32.113281-32.113281 0-17.734375-14.378906-32.109375-32.113281-32.109375zm0 0" fill="#893aa8"/><path d="m315.046875 266.886719c-7.203125 22.410156-24.976563 41.890625-49.769531 51.269531-34.886719 13.199219-72.578125 2.195312-92.457032-24.550781l-5.324218 1c14.644531 38.707031 60.21875 57.332031 101.792968 41.605469 31.777344-12.023438 52.019532-40.632813 53.257813-70.730469zm0 0" fill="#f8b53c"/><g fill="#18191b"><path d="m445.148438 113.882812c1.855468.207032 3.726562.320313 5.617187.320313.9375 0 1.878906-.023437 2.820313-.074219 13.542968-.738281 25.988281-6.703125 35.042968-16.800781 17.351563-19.347656 19.609375-82.925781 19.808594-90.113281.058594-2.0625-.792969-4.042969-2.328125-5.421875-1.539063-1.375-3.605469-2.007813-5.644531-1.7265628-7.121094.9765628-70.082032 10.1093748-87.433594 29.4570318-11.367188 12.675781-15.160156 29.53125-11.714844 45.003906-6.777344 4.691406-14.121094 10.230468-21.847656 16.488281v-.015625c-2.292969 1.855469-4.625 3.789062-6.96875 5.757812-.25.207032-.496094.417969-.746094.628907-1.878906 1.582031-3.773437 3.199219-5.683594 4.851562-.164062.144531-.332031.285157-.496093.425781-1.046875.910157-2.101563 1.828126-3.160157 2.757813-.0625.058594-.128906.117187-.195312.175781-2.023438 1.78125-4.0625 3.601563-6.113281 5.453125-.144531.128907-.285157.253907-.425781.382813-.007813.007812-.015626.015625-.023438.023437-18.21875 16.476563-37.449219 35.667969-56.570312 56.515625-10.730469-18.519531-16.519532-39.855468-16.304688-61.351562.039062-3.765625.25-7.507813.472656-11.472656.386719-6.855469.789063-13.945313.21875-21.15625-1.140625-14.441407-6.441406-25.652344-15.75-33.324219-10.542968-8.683594-25.785156-12.175781-44.089844-10.085938-52.644531 5.996094-101.597656 28.34375-141.578124 64.628907-3.039063 2.757812-3.523438 7.527343-.847657 10.644531 2.773438 3.226562 7.644531 3.507812 10.769531.664062 37.667969-34.253906 83.78125-55.34375 133.359376-60.992187 9.871093-1.121094 23.574218-.863282 32.820312 6.753906 6.039062 4.976562 9.511719 12.679688 10.320312 22.898438.488282 6.191406.136719 12.472656-.242187 19.121093-.222656 3.960938-.453125 8.054688-.496094 12.171875-.265625 26.5625 7.613281 52.917969 22.058594 75.089844.148437 1.714844 3.351563 5.425781 3.929687 5.707031 3.335938 4.585938 6.964844 8.972657 10.878907 13.101563 11.238281 11.867187 24.234375 21.199218 39.125 28.066406 6.34375 3.027344 12.632812 5.085938 12.660156 5.09375 17.921875 6.203125 38.296875 9.304688 61.34375 9.386719 2.144531.007812 4.308594.007812 6.496094.007812 3.207031.003907 6.460937.003907 9.773437.027344 23.148438.160156 33.539063 14.332031 33.566406 28.3125v.488281c0 61.777344-25.65625 121.660156-70.394531 164.289063-9.617187 9.167969-20.125 17.496093-31.230469 24.761719-52.828124 34.566406-119.355468 44.960937-182.527343 28.523437-62.308594-16.214844-114.539063-57.03125-143.296875-111.980469-10.421875-19.910156-17.738282-41.523437-21.746094-64.242187-5.765625-32.683594-4.03125-65.511719 5.160156-97.574219 8.75-30.523438 23.738282-58.769531 44.550782-83.960938 2.632812-3.183593 2.523437-7.972656-.566407-10.710937-3.199219-2.828125-8.078125-2.433594-10.785156.828125-22.269531 26.871094-38.304687 57.050781-47.660156 89.699219-9.824219 34.277343-11.679688 69.382812-5.515625 104.332031 4.277344 24.242188 12.09375 47.324219 23.230468 68.605469 30.726563 58.703125 86.433594 102.28125 152.839844 119.5625 20.898438 5.4375 42.144532 8.113281 63.199219 8.113281 46.722656 0 92.496094-13.179688 131.355469-38.605469 11.867187-7.765625 23.09375-16.667969 33.371094-26.457031 47.703124-45.460938 75.0625-109.308594 75.0625-175.183594v-.523437c-.054688-25.308594-20.003907-43.125-48.511719-43.320313-3.34375-.023437-6.632813-.023437-9.867188-.027344-2.171875 0-4.320312 0-6.449219-.007812-18.8125-.066406-35.613281-2.292969-50.554687-6.714844 29.089844-33.566406 53.910156-66.765625 70.707031-94.6875 2.640625-4.390625 5.039063-8.585937 7.207032-12.589844zm-21.664063-74.980468c9.394531-10.476563 45.257813-19.433594 70.554687-23.652344-1.449218 25.605469-6.46875 62.226562-15.863281 72.703125-6.550781 7.304687-15.554687 11.621094-25.351562 12.15625-9.800781.527344-19.21875-2.785156-26.519531-9.335937-15.082032-13.523438-16.34375-36.792969-2.820313-51.871094zm-70.441406 177.164062c-14.46875-6.195312-26.921875-14.851562-37.519531-26.039062-3.003907-3.175782-5.816407-6.519532-8.441407-9.996094 17.988281-19.757812 36.09375-38.035156 53.34375-53.925781l37.898438 33.992187c-13.253907 17.957032-28.585938 36.921875-45.28125 55.96875zm77.800781-105.324218c-.039062.070312-.078125.140624-.117188.210937-.460937.816406-.929687 1.644531-1.410156 2.480469-.035156.058594-.070312.121094-.105468.179687-6.117188 10.617188-13.777344 22.480469-22.628907 35.027344l-35.667969-31.992187c12.757813-11.257813 24.839844-20.96875 35.535157-28.574219 2.667969 4.816406 6.15625 9.277343 10.476562 13.152343 4.269531 3.828126 9.066407 6.847657 14.195313 9.011719-.089844.167969-.179688.335938-.277344.503907zm0 0"/><path d="m162.328125 104.015625c-21.855469 0-39.636719 17.78125-39.636719 39.636719 0 21.851562 17.78125 39.632812 39.636719 39.632812s39.632813-17.78125 39.632813-39.632812c0-21.855469-17.78125-39.636719-39.632813-39.636719zm0 64.226563c-13.5625 0-24.59375-11.035157-24.59375-24.59375 0-13.558594 11.03125-24.589844 24.59375-24.589844 13.558594 0 24.589844 11.03125 24.589844 24.589844 0 13.558593-11.03125 24.59375-24.589844 24.59375zm0 0"/><path d="m68.078125 219.15625c0 20.933594 17.03125 37.964844 37.964844 37.964844 20.933593 0 37.964843-17.03125 37.964843-37.964844s-17.03125-37.964844-37.964843-37.964844c-20.933594 0-37.964844 17.03125-37.964844 37.964844zm60.882813 0c0 12.636719-10.28125 22.921875-22.917969 22.921875-12.640625 0-22.921875-10.28125-22.921875-22.921875s10.28125-22.921875 22.921875-22.921875c12.636719 0 22.917969 10.285156 22.917969 22.921875zm0 0"/><path d="m100.667969 289.234375c-20.933594 0-37.960938 17.03125-37.960938 37.964844 0 20.933593 17.027344 37.964843 37.960938 37.964843 20.9375 0 37.96875-17.03125 37.96875-37.964843 0-20.933594-17.03125-37.964844-37.96875-37.964844zm0 60.886719c-12.636719 0-22.917969-10.285156-22.917969-22.921875 0-12.640625 10.28125-22.921875 22.917969-22.921875 12.640625 0 22.921875 10.28125 22.921875 22.921875 0 12.636719-10.28125 22.921875-22.921875 22.921875zm0 0"/><path d="m170.210938 446.941406c20.933593 0 37.964843-17.03125 37.964843-37.964844 0-20.9375-17.03125-37.964843-37.964843-37.964843-20.933594 0-37.964844 17.027343-37.964844 37.964843 0 20.933594 17.03125 37.964844 37.964844 37.964844zm0-60.886718c12.636718 0 22.921874 10.28125 22.921874 22.921874 0 12.640626-10.28125 22.921876-22.921874 22.921876-12.640626 0-22.921876-10.28125-22.921876-22.921876 0-12.640624 10.285157-22.921874 22.921876-22.921874zm0 0"/><path d="m250.734375 414.945312c0 20.933594 17.03125 37.964844 37.964844 37.964844 20.933593 0 37.964843-17.03125 37.964843-37.964844 0-20.9375-17.03125-37.964843-37.964843-37.964843-20.933594 0-37.964844 17.03125-37.964844 37.964843zm60.882813 0c0 12.636719-10.28125 22.921876-22.917969 22.921876-12.640625 0-22.921875-10.285157-22.921875-22.921876 0-12.640624 10.28125-22.921874 22.921875-22.921874 12.636719 0 22.917969 10.28125 22.917969 22.921874zm0 0"/><path d="m417.304688 343.253906c0-21.855468-17.78125-39.636718-39.632813-39.636718-21.855469 0-39.636719 17.78125-39.636719 39.636718 0 21.855469 17.78125 39.632813 39.636719 39.632813 21.851563 0 39.632813-17.777344 39.632813-39.632813zm-64.222657 0c0-13.558594 11.03125-24.59375 24.589844-24.59375s24.589844 11.035156 24.589844 24.59375-11.03125 24.589844-24.589844 24.589844-24.589844-11.03125-24.589844-24.589844zm0 0"/><path d="m322.859375 257.964844c-4.125-.167969-7.65625 3.054687-7.828125 7.203125-1.160156 28.199219-20.160156 53.320312-48.402344 64.007812-18.324218 6.929688-38.03125 6.816407-55.488281-.320312-17.273437-7.058594-30.273437-20.167969-36.605469-36.910157-1.472656-3.886718-5.8125-5.847656-9.699218-4.375-3.882813 1.46875-5.84375 5.8125-4.371094 9.695313 7.828125 20.695313 23.800781 36.859375 44.984375 45.515625 10.691406 4.371094 22.0625 6.558594 33.542969 6.558594 11.058593 0 22.21875-2.03125 32.960937-6.09375 33.890625-12.824219 56.703125-43.226563 58.113281-77.457032.167969-4.152343-3.058594-7.65625-7.207031-7.824218zm0 0"/></g></svg>