<?xml version="1.0" encoding="UTF-8"?>
<svg xmlns="http://www.w3.org/2000/svg" width="512" height="512" viewBox="0 0 512 512"><g><path d="M496,112H351.66a95.993,95.993,0,0,0-191.32,0H128a8,8,0,0,0-8,8V252.46L92.69,280H16a8,8,0,0,0-8,8V424a8,8,0,0,0,8,8H92.69l13.65,13.66A8.008,8.008,0,0,0,112,448h8v40a8,8,0,0,0,8,8H496a8,8,0,0,0,8-8V120A8,8,0,0,0,496,112ZM360,128V266.21l-44.03-25.16a8.03,8.03,0,0,0-7.94,0L264,266.21V215.66A96.139,96.139,0,0,0,351.66,128ZM256,40a80,80,0,1,1-80,80A80.093,80.093,0,0,1,256,40ZM24,296H96a8.008,8.008,0,0,0,5.66-2.34L120,275.27v17.19L92.69,320H24Zm91.31,136-13.65-13.66A8.008,8.008,0,0,0,96,416H24V336H96a8.008,8.008,0,0,0,5.66-2.34L155,279.69a8,8,0,0,1,11.31,0,7.979,7.979,0,0,1,.01,11.3c-.05.06-.1.11-.15.16l-14.55,15.34a8,8,0,0,0,5.8,13.51H248a8,8,0,0,1,0,16H184a8,8,0,0,0,0,16h96a7.989,7.989,0,0,1,8,8,8.011,8.011,0,0,1-8,8H184a8,8,0,0,0,0,16h64a8,8,0,0,1,0,16H184a8,8,0,0,0,0,16h48a8,8,0,0,1,0,16ZM488,480H136V448h96a23.994,23.994,0,0,0,22.31-32.84A24.012,24.012,0,0,0,270.63,384H280a24,24,0,1,0,0-48h-9.37A24.006,24.006,0,0,0,248,304H176.03l1.67-1.76a24,24,0,0,0-34.06-33.82L136,276.19V128h24.34A96.139,96.139,0,0,0,248,215.66V280a8,8,0,0,0,11.97,6.95L312,257.21l52.03,29.74A8,8,0,0,0,376,280V128H488Z"/><path d="M360,392a8,8,0,0,0-8,8v56a8,8,0,0,0,8,8H464a8,8,0,0,0,8-8V400a8,8,0,0,0-8-8Zm96,56H368V408h88Z"/><path d="M211.2,134.4l32,24a8,8,0,0,0,10.821-1.132l56-64a8,8,0,1,0-12.042-10.536l-51.114,58.416L220.8,121.6a8,8,0,1,0-9.6,12.8Z"/></g></svg>
