<svg height="512" viewBox="0 0 128 128" width="512" xmlns="http://www.w3.org/2000/svg"><path d="m110.554 34.965a1.751 1.751 0 0 0 -1.554-.945h-6.281l5.947-14.35a1.75 1.75 0 0 0 -1.616-2.42h-15.84a1.75 1.75 0 0 0 -1.715 1.4l-4.858 23.2a1.75 1.75 0 0 0 1.713 2.11h4.826l-1.135 5.83h-9.256v-3.784a7.456 7.456 0 0 0 -7.448-7.448h-18.837a7.456 7.456 0 0 0 -7.448 7.448v3.784h-9.09l-1.137-5.83h4.825a1.751 1.751 0 0 0 1.713-2.109l-4.638-22.12-.22-1.08a1.75 1.75 0 0 0 -1.715-1.4h-15.84a1.751 1.751 0 0 0 -1.617 2.42l5.948 14.35h-6.281a1.75 1.75 0 0 0 -1.429 2.76l9.452 13.382a6 6 0 0 0 -3.933 5.627v17.3a1.75 1.75 0 0 0 1.324 1.7l1.549.392v29.484a5.99 5.99 0 0 0 5.984 5.982h64.1a5.989 5.989 0 0 0 5.982-5.982v-29.49l1.552-.388a1.751 1.751 0 0 0 1.325-1.7v-17.298a6 6 0 0 0 -3.933-5.628l9.457-13.382a1.753 1.753 0 0 0 .124-1.815zm-60.007 11.041a3.952 3.952 0 0 1 3.953-3.948h18.837a3.952 3.952 0 0 1 3.948 3.948v3.784h-26.738zm-22.647-8.486a1.751 1.751 0 0 0 1.617-2.42l-5.946-14.35h11.791l4.133 19.71h-4.795a1.751 1.751 0 0 0 -1.718 2.085l2.686 13.789-4.1-5.8-9.189-13.014zm38.13 44.5v.029 4.59a.387.387 0 0 1 -.39.391h-3.446a.4.4 0 0 1 -.391-.391v-4.639-.017-2.923a.391.391 0 0 1 .39-.39h3.44a.4.4 0 0 1 .4.39zm32.5 22.643a2.484 2.484 0 0 1 -2.482 2.482h-64.1a2.486 2.486 0 0 1 -2.484-2.482v-28.6l28.84 7.3v3.276a3.9 3.9 0 0 0 3.891 3.891h3.441a3.9 3.9 0 0 0 3.89-3.891v-3.226l21.793-5.525 7.215-1.829zm.39-51.373a2.5 2.5 0 0 1 2.49 2.5v15.934l-1.521.385c-.012 0-.024 0-.036.005l-30.323 7.686v-.74a3.9 3.9 0 0 0 -3.9-3.89h-3.44a3.894 3.894 0 0 0 -3.89 3.89v.69l-30.157-7.636h-.007l-1.546-.388v-15.936a2.5 2.5 0 0 1 2.49-2.5h.152l8.278 11.72a1.724 1.724 0 0 0 .38.378c.039.03.079.055.12.081a1.769 1.769 0 0 0 .383.182c.033.011.063.027.1.035a1.71 1.71 0 0 0 .45.064c.023 0 .046-.006.069-.007s.057-.006.086-.008a1.725 1.725 0 0 0 1.563-2.068l-2.018-10.377h10.12.034 30.238.034 10.288l-2.015 10.376a1.749 1.749 0 0 0 1.03 1.943 1.716 1.716 0 0 0 .526.124c.03 0 .059.008.09.009s.044.007.067.007a1.744 1.744 0 0 0 .449-.063c.035-.009.066-.026.1-.037a1.75 1.75 0 0 0 .381-.181c.042-.026.081-.051.121-.081a1.72 1.72 0 0 0 .379-.378l8.279-11.72zm-2.486-2.764-4.1 5.8 2.686-13.789a1.751 1.751 0 0 0 -1.72-2.077h-4.8l4.133-19.71h11.797l-5.948 14.35a1.751 1.751 0 0 0 1.618 2.42h5.521z"/></svg>