<svg id="Layer_5" enable-background="new 0 0 64 64" height="512" viewBox="0 0 64 64" width="512" xmlns="http://www.w3.org/2000/svg"><g><path d="m17 23v-2h3v-3c0-1.654-1.346-3-3-3h-2c-.552 0-1-.448-1-1v-1h3c.552 0 1 .448 1 1h2c0-1.654-1.346-3-3-3v-2h-2v2h-3v3c0 1.654 1.346 3 3 3h2c.552 0 1 .448 1 1v1h-3c-.552 0-1-.448-1-1h-2c0 1.654 1.346 3 3 3v2z"/><path d="m27 16c0-6.065-4.935-11-11-11s-11 4.935-11 11 4.935 11 11 11 11-4.935 11-11zm-20 0c0-4.963 4.037-9 9-9s9 4.037 9 9-4.037 9-9 9-9-4.037-9-9z"/><path d="m58 23h-8.585l11.842-11.843c1.124-1.124 1.743-2.618 1.743-4.207 0-3.281-2.669-5.95-5.95-5.95-1.589 0-3.083.619-4.207 1.743l-20.257 20.257h-3.329c1.109-2.092 1.743-4.472 1.743-7 0-8.271-6.729-15-15-15s-15 6.729-15 15c0 5.744 3.248 10.737 8 13.257v20.743c0 2.757 2.243 5 5 5h9.649l9.321 7.457c.438.351.989.543 1.55.543 1.368 0 2.48-1.112 2.48-2.48v-5.52h21c2.757 0 5-2.243 5-5v-22c0-2.757-2.243-5-5-5zm-9.586-13 1.586-1.586 5.586 5.586-1.586 1.586zm.672 3.5-15.586 15.586-2.085-2.086 15.585-15.586zm-18.763 15.237 4.94 4.94-7.349 3.266c-.411.187-.914-.142-.914-.592 0-.092.019-.181.057-.265zm2.677 8.135 4.576-2.034 5.839-5.838h13.585v20h-24zm4-4.287-2.086-2.085 15.586-15.586 2.086 2.086zm17.257-28.428c.746-.746 1.738-1.157 2.793-1.157 2.178 0 3.95 1.772 3.95 3.95 0 1.055-.411 2.047-1.157 2.793l-2.843 2.843-5.586-5.586zm-51.257 11.843c0-7.168 5.832-13 13-13s13 5.832 13 13-5.832 13-13 13-13-5.832-13-13zm58 34c0 1.654-1.346 3-3 3h-23v7.52c0 .373-.491.61-.78.375l-9.869-7.895h-10.351c-1.654 0-3-1.346-3-3v-19.875c1.567.556 3.245.875 5 .875 4.893 0 9.232-2.365 11.972-6h2.614l-1.293 1.293-.132.131-3.933 8.85c-.151.341-.228.704-.228 1.077 0 1.461 1.188 2.649 2.649 2.649.373 0 .735-.077 1.077-.229l2.274-1.01v11.239c0 1.103.897 2 2 2h24c1.103 0 2-.897 2-2v-20c0-1.103-.897-2-2-2h-11.585l2-2h10.585c1.654 0 3 1.346 3 3z"/><path d="m27 49h2v2h-2z"/><path d="m13 49h12v2h-12z"/><path d="m13 45h16v2h-16z"/><path d="m13 41h16v2h-16z"/><path d="m13 37h10v2h-10z"/><path d="m13 33h10v2h-10z"/><path d="m45 31c-4.411 0-8 3.589-8 8s3.589 8 8 8 8-3.589 8-8-3.589-8-8-8zm5.91 7h-4.91v-4.91c2.507.424 4.486 2.403 4.91 4.91zm-5.91 7c-3.309 0-6-2.691-6-6 0-2.967 2.167-5.431 5-5.91v6.91h6.91c-.479 2.833-2.943 5-5.91 5z"/></g></svg>