<svg id="Capa_1" enable-background="new 0 0 512 512" height="512" viewBox="0 0 512 512" width="512" xmlns="http://www.w3.org/2000/svg"><g><path d="m362.083 39.91v30.721l-27.486.01-83.543-19.686h-1.743-171.758c-24.813 0-45 20.187-45 45.092 0 8.911 2.614 17.217 7.1 24.214-10.788 8.237-17.767 21.24-17.767 35.878 0 8.847 2.576 17.098 7.003 24.064-10.898 8.229-17.958 21.302-17.958 36.028 0 8.852 2.58 17.108 7.011 24.076-10.889 8.229-17.942 21.296-17.942 36.015 0 24.813 20.187 45 45 45h115.993l-15.342 74.016c-3.462 15.156-.736 30.693 7.682 43.772 8.452 13.131 21.536 22.066 36.844 25.158l38.725 7.822 22.308-68.542c5.439-16.127 16.519-29.747 31.204-38.354l54.516-31.956h25.155v30.716h149.915v-324.044zm-33.299 263.329-61.542 36.074c-20.953 12.282-36.753 31.724-44.492 54.746l-14.104 43.335-12.529-2.531c-7.294-1.474-13.53-5.731-17.558-11.989-4.027-6.257-5.32-13.696-3.641-20.946l16.711-80.605h27.144v-30h-173.773c-8.271 0-15-6.729-15-15.092 0-8.271 6.729-15 15-15h86.722v-30h-75.791c-8.271 0-15-6.729-15-15.091 0-8.271 6.729-15 15-15h86.747v-30h-75.792c-8.271 0-15-6.729-15-15.092 0-8.271 6.729-15 15-15h86.458v-30h-75.791c-8.271 0-15-6.729-15-15.092 0-8.271 6.729-15 15-15h85.447 84.569l83.547 19.687 30.968-.01v202.607h-33.3zm153.216 30.716h-89.917v-.716-262.618-.711h89.917z"/><path d="m422.042 99.84h30v29.969h-30z"/></g></svg>